<?xml version="1.0" standalone="no"?>
<!DOCTYPE svg PUBLIC "-//W3C//DTD SVG 20010904//EN" "http://www.w3.org/TR/2001/REC-SVG-20010904/DTD/svg10.dtd">
<!-- Created using Krita: https://krita.org -->
<svg xmlns="http://www.w3.org/2000/svg" 
    xmlns:xlink="http://www.w3.org/1999/xlink"
    xmlns:krita="http://krita.org/namespaces/svg/krita"
    xmlns:sodipodi="http://sodipodi.sourceforge.net/DTD/sodipodi-0.dtd"
    width="72pt"
    height="72pt"
    viewBox="0 0 72 72">
<defs/>
<path id="shape0" transform="matrix(0.72 0 0 0.72 0.000216000000003094 0)" fill="#ffffff" stroke-opacity="0" stroke="#000000" stroke-width="0" stroke-linecap="square" stroke-linejoin="bevel" d="M50.0107 0C47.1268 0 44.2968 0.25936 41.5465 0.7281L40.2041 14.9491C37.3597 15.742 34.6676 16.8506 32.1495 18.2711L21.1595 9.1926C16.5176 12.4786 12.4541 16.5185 9.1685 21.1606L18.2697 32.1506C16.8509 34.6657 15.7177 37.3646 14.925 40.2052L0.728 41.5552C0.25907 44.3052 0 47.1352 0 50.0452C0 52.9349 0.25747 55.7537 0.7281 58.5093L14.9261 59.8518C15.7188 62.6924 16.8521 65.3913 18.2708 67.9064L9.1923 78.8964C12.4719 83.5258 16.5084 87.5849 21.1373 90.8644L32.1503 81.7631C34.67 83.1848 37.3585 84.3146 40.2049 85.1078L41.5473 99.3288C44.2976 99.7976 47.1276 100.034 50.0115 100.034C52.8953 100.034 55.7026 99.7976 58.4529 99.3288L59.7953 85.1078C62.6418 84.3146 65.3302 83.1848 67.8499 81.7631L78.8629 90.8644C83.4922 87.5847 87.5287 83.5256 90.8079 78.8964L81.7294 67.9064C83.1482 65.3913 84.2814 62.6924 85.0741 59.8518L99.2721 58.5093C99.7427 55.7537 100 52.9349 100 50.0452C100 47.1604 99.7411 44.3321 99.2721 41.581L85.0741 40.2386C84.2814 37.398 83.1481 34.6991 81.7294 32.184L90.8306 21.194C87.5451 16.5517 83.4816 12.5119 78.8396 9.226L67.8496 18.3045C65.3315 16.884 62.6394 15.7754 59.795 14.9825L58.4526 0.7615C55.7023 0.29276 52.895 0.0334 50.0112 0.0334ZM50.0107 30.967C60.5267 30.967 69.0327 39.495 69.0327 50.011C69.0327 60.527 60.5274 69.055 50.0107 69.055C39.4947 69.055 30.9667 60.527 30.9667 50.011C30.9667 39.495 39.4947 30.967 50.0107 30.967Z" sodipodi:nodetypes="ccccccccccccccccccccccccccccccccccccccccccc"/>
</svg>
